<?xml version="1.0" encoding="utf-8"?>
<!-- Generator: Adobe Illustrator 27.2.0, SVG Export Plug-In . SVG Version: 6.00 Build 0)  -->
<svg version="1.1" id="katman_1" xmlns="http://www.w3.org/2000/svg" xmlns:xlink="http://www.w3.org/1999/xlink" x="0px" y="0px"
	 viewBox="0 0 200 200" style="enable-background:new 0 0 200 200;" xml:space="preserve">
<style type="text/css">
	.st0{fill:#FFFFFF;}
</style>
<path d="M267.99,111.34c-4.29,0.25-6.82-1.81-8.78-5.62c-1.91-3.73-4.7-7.01-8.23-10.13c0,3.89-0.08,7.78,0.03,11.67
	c0.07,2.35-0.45,3.73-3.21,3.81c-2.99,0.09-3.62-1.32-3.57-3.95c0.12-6.47-0.06-12.95,0.11-19.41c0.04-1.41,0.86-3.84,1.65-3.98
	c1.52-0.27,3.83,0.23,4.84,1.32c3.38,3.62,6.33,7.64,10.22,12.46c0.28-5.12,0.5-9.37,0.75-13.87c2.26-0.11,4.22-0.2,6.17-0.29
	C267.99,92.68,267.99,102.01,267.99,111.34z"/>
<path d="M9.99,145.34c-0.77-1.9-2.05-3.77-2.2-5.72c-0.34-4.31-0.59-8.72,0-12.97c1.11-8.03-3.87-11.6-9.73-14.8
	c-0.31-0.27-0.62-0.54-0.93-0.82c0.7-1.77,0.89-4.3,2.19-5.19c7.03-4.79,9.39-11.11,8.49-19.47c-0.68-6.39-0.31-12.91-0.03-19.36
	c0.08-1.92,1.43-3.78,2.2-5.67c0.33,0,0.67,0,1,0c-0.06,10.29-0.36,20.6-0.07,30.88c0.14,4.88-0.9,8.63-5.08,11.45
	c-1.89,1.27-3.37,3.13-4.96,4.65c0.21,0.59,0.22,1.03,0.42,1.15c9.12,5.4,10.67,13.77,9.59,23.44c-0.45,4.09,0.03,8.29,0.09,12.43
	C10.66,145.34,10.32,145.34,9.99,145.34z"/>
<path d="M-11.93,118.86c0.58,1.99,1.16,3.97,1.72,5.88c-7.53-6.7-14.66-13.05-21.8-19.4c0-0.67,0-1.33,0-2
	c7.88-6.31,16.69-11.73,20.76-23.04c1.41,5.37,0.92,8.64-2.76,11.58c-4.63,3.7-8.82,7.98-13.58,12.35c1.2,1.14,2.2,2.09,3.21,3.05
	C-20.23,111.14-16.08,115-11.93,118.86z"/>
<path d="M77.23,105.28c-1.08,5.14-3.55,6.32-8.66,5.33c-4.87-0.94-10.15,0.11-15.23,0.45c-3.27,0.22-4.35-1.08-4.26-4.33
	c0.2-7.46,0.06-14.93,0.06-23c2.14-0.11,4.03-0.22,6.55-0.35c0,7.21,0,14.09,0,21.63c3.06,0,5.56-0.34,7.92,0.11
	c1.86,0.35,3.53,1.68,5.48,2.67c2.51-6.22,5.23-13.49,8.45-20.54c0.76-1.66,3.13-3.42,4.88-3.54c1.46-0.11,3.82,1.78,4.51,3.35
	c3.34,7.55,6.25,15.29,9.46,23.32c-4.19,1.04-7.32,1.66-8.75-3.19c-0.28-0.94-2.47-1.63-3.87-1.83
	C81.64,105.06,79.47,105.28,77.23,105.28z M85.32,99.54c-1.01-2.71-1.82-4.89-3.14-8.46c-1.39,3.61-2.23,5.8-3.25,8.46
	C81.25,99.54,82.85,99.54,85.32,99.54z"/>
<path d="M216.81,98.88c0.88-3.01,1.5-6.14,2.76-8.98c0.64-1.45,2.46-3.34,3.7-3.31c1.32,0.03,3.13,1.87,3.76,3.33
	c1.37,3.13,2.12,6.54,3.93,9.75c0.76-3.73,1.87-7.43,2.18-11.2c0.43-5.28,3.14-5.88,8.15-4.31c-2.19,8.22-4.24,16.4-6.65,24.48
	c-0.32,1.06-2.4,2.21-3.66,2.21c-1.27,0-3.19-1.1-3.7-2.22c-1.51-3.31-2.46-6.86-4.14-11.85c-1.53,4.44-2.31,7.75-3.83,10.67
	c-0.8,1.54-2.83,3.14-4.45,3.31c-1.15,0.12-3.27-1.89-3.71-3.33c-2-6.52-3.68-13.15-5.15-19.81c-0.27-1.22,0.69-3.73,1.56-3.98
	c2.12-0.61,4.7-0.78,5.29,2.64c0.73,4.2,1.69,8.35,2.56,12.53C215.88,98.83,216.34,98.86,216.81,98.88z"/>
<path d="M43,95.89c0.5,3.19,2.27,6.94,1.16,9.4c-1.16,2.58-5.06,3.95-7.79,5.79c-0.37,0.25-0.97,0.19-1.46,0.24
	C23.97,112.5,23,111.65,23,100.93c0-4.49,0.14-8.98-0.05-13.45c-0.12-2.81,1.07-4.06,3.69-4.05c3.47,0.02,7.03-0.26,10.39,0.4
	c6.54,1.28,8.23,6.1,4.55,11.85C42.06,95.74,42.53,95.81,43,95.89z M29.85,106.85c3.3-1.35,5.65-2.2,7.85-3.34
	c0.3-0.15,0.09-2.44-0.3-2.58c-2.32-0.85-4.77-1.37-7.55-2.09C29.85,101.68,29.85,103.43,29.85,106.85z M30.34,87.73
	c-1.04,4.3-1.05,6.59,2.53,5.99c1.45-0.24,2.72-1.57,4.07-2.41C34.96,90.24,32.98,89.17,30.34,87.73z"/>
<path d="M150.73,96.94c0-2.66,0.26-5.34-0.06-7.96c-0.54-4.51,1.53-6.01,5.68-5.73c2.64,0.18,5.34-0.07,7.92,0.4
	c6.93,1.26,10.71,6.12,10.76,13.42c0.06,7.25-3.71,12.2-10.47,13.78c-0.16,0.04-0.33,0.06-0.49,0.09
	c-11.24,2.34-13.34,0.69-13.35-10.52c0-1.16,0-2.32,0-3.49C150.72,96.94,150.73,96.94,150.73,96.94z M157.84,106.69
	c3.55-1.76,7.5-2.45,8.65-4.62c1.38-2.62,1.43-7.03,0.09-9.66c-1.1-2.17-5.07-2.87-8.74-4.71
	C157.84,94.63,157.84,99.8,157.84,106.69z"/>
<path d="M130.75,92.63c5.58-3.84,7.51-11.64,16.3-8.49c-3.59,4.05-7.02,7.92-10.42,11.76c3.72,4.66,7.38,9.24,11.33,14.2
	c-10.13,3.85-10.7-6.65-16.99-9.26c0,2.33-0.12,4.54,0.03,6.72c0.19,2.67-1.12,3.96-3.49,3.32c-1.28-0.35-3.08-1.98-3.13-3.09
	c-0.29-6.98-0.24-13.98-0.1-20.97c0.07-3.55,0.58-3.7,6.47-2.86C130.75,86.46,130.75,89.04,130.75,92.63z"/>
<path d="M204.88,110.51c-4.3,0.76-7.23,1.34-8.88-3.14c-0.46-1.24-3.75-1.94-5.75-1.95c-1.8-0.01-4.79,0.86-5.19,2.05
	c-1.48,4.33-4.35,3.78-8.64,3.04c3.56-8.65,6.77-17.09,10.54-25.27c1.49-3.23,6.43-2.72,7.9,0.69
	C198.25,93.82,201.37,101.84,204.88,110.51z M190.55,90.81c-1.3,3.62-2.12,5.89-3.09,8.6c2.25,0,3.9,0,6.17,0
	C192.64,96.64,191.83,94.39,190.55,90.81z"/>
<path d="M118.55,90.09c-4.49-0.96-9.47-3.06-11.95,1.82c-1.43,2.83-1.61,7.43-0.29,10.28c2.57,5.54,8.02,2.8,12.4,2.42
	c2.85,4.65,2.65,5.23-2.13,6.43c-6.7,1.68-13.3-0.17-16.3-4.58c-3.19-4.69-3.25-12.92-0.11-17.57c3.29-4.89,9.03-7.01,15.39-5.71
	C120.59,84.21,120.91,84.88,118.55,90.09z"/>
<path d="M87.12,143.07c-1.57-1.46-2.8-2.62-4.21-3.93c-0.54,1.16-1.03,2.24-1.62,3.52c-0.7-0.48-1.35-0.71-1.39-1
	c-0.21-1.96-0.48-3.95-0.34-5.91c0.09-1.34,0.57-3.55,1.32-3.75c1.59-0.43,3.78-0.3,5.11,0.56c0.91,0.59,0.94,2.77,1.09,4.26
	C87.25,138.59,87.12,140.38,87.12,143.07z"/>
<path d="M126.98,143.6c-2.19-2.69-3.68-4.51-5.4-6.62c-0.51,2.18-0.91,3.86-1.31,5.55c-0.41-0.05-0.83-0.11-1.24-0.16
	c0-3.41,0-6.82,0-11.54c2.26,2.16,3.8,3.62,5.56,5.3c0.48-1.44,0.92-2.79,1.36-4.13c0.34,0.04,0.68,0.08,1.02,0.11
	C126.98,135.55,126.98,138.98,126.98,143.6z"/>
<path d="M210.15,137.25c-3.59,2.54-5.57,4.98-7.87,5.33c-3.18,0.47-4.94-2.19-4.95-5.43c0-3.52,1.99-6.07,5.38-5.52
	C204.87,131.98,206.68,134.5,210.15,137.25z M206.18,136.79c-1.73-1.21-2.87-2.01-4.01-2.81c-0.74,1.08-2.22,2.32-2.03,3.21
	c0.25,1.17,1.8,2.07,2.79,3.09C203.82,139.33,204.7,138.38,206.18,136.79z"/>
<path d="M159.69,132.07c0,3.37,0,6.73,0,11.19c-1.83-2.35-2.96-3.79-4.09-5.24c-0.98,1.44-1.96,2.87-3.64,5.33
	c0-4.44,0-7.91,0-12.33C155.5,137.08,155.63,137.08,159.69,132.07z"/>
<path d="M230.56,133.22c-1.32,0.39-2.63,0.78-4.92,1.47c2.15,0.86,3.39,1.35,5.38,2.15c-2.03,0.79-3.28,1.28-5.8,2.25
	c2.66,0.83,4.15,1.29,5.63,1.76c0,0.5,0.01,1,0.01,1.5c-2.1,0-5.87,0.48-6.04-0.08c-0.87-3-1.28-6.33-0.82-9.4
	c0.11-0.75,4.07-0.92,6.26-1.36C230.37,132.08,230.47,132.65,230.56,133.22z"/>
<path d="M93.58,139.36c3.07,0.8,4.65,1.21,6.23,1.62c-0.02,0.42-0.04,0.84-0.05,1.27c-2.12,0.21-4.23,0.42-7.53,0.75
	c0.38-4.04,0.48-7.53,1.28-10.84c0.11-0.45,3.7-0.06,5.77,0.92c-1.42,0.49-2.84,0.99-5.11,1.77c2.11,0.75,3.4,1.2,5.3,1.88
	C97.52,137.59,96.19,138.19,93.58,139.36z"/>
<path d="M172.05,136.84c-1.82,0.84-3.07,1.41-5.25,2.42c2.52,0.77,4.07,1.25,5.62,1.72c-0.04,0.53-0.07,1.06-0.11,1.6
	c-2.17-0.14-5.99,0.22-6.22-0.53c-0.89-2.87-1.15-6.22-0.5-9.13c0.2-0.89,4.07-0.96,6.26-1.4c0.11,0.5,0.22,1,0.33,1.5
	c-1.37,0.49-2.75,0.98-4.74,1.7C169.12,135.49,170.32,136.04,172.05,136.84z"/>
<path d="M184.43,131.14c3.98,5.76,3.98,5.76,7.49-0.17c0,4.5,0,7.95,0,11.39c-0.32,0.06-0.65,0.11-0.97,0.17
	c-0.5-1.43-1-2.87-1.98-5.69c-1.58,2.29-2.66,3.84-4.54,6.56C184.43,138.91,184.43,135.52,184.43,131.14z"/>
<path d="M61.07,143.04c0-4.04,0-7.43,0-11c2.13,0,4.15,0,6.17,0c0.07,0.28,0.14,0.56,0.21,0.84c-1.27,0.58-2.54,1.15-4.41,2
	c1.71,0.68,2.92,1.16,3.84,1.53C65.02,138.54,63.33,140.46,61.07,143.04z"/>
<path d="M145.91,132.23c-0.92,3.46-1.78,6.72-3.04,11.45c-1.2-4.51-2.07-7.8-3.04-11.45C141.5,132.23,144.19,132.23,145.91,132.23z"
	/>
<path d="M215.34,139.68c1.29,0.43,2.58,0.86,3.86,1.29c0,0.41,0,0.83-0.01,1.24c-1.99,0.19-3.98,0.39-6.09,0.59
	c0-4.05,0-7.48,0-10.92c0.49-0.03,0.98-0.06,1.47-0.09C214.82,134.23,215.05,136.68,215.34,139.68z"/>
<path d="M112.7,132.02c0,3.42,0,6.84,0,10.27c-0.4,0.01-0.8,0.02-1.2,0.03c0-3.42,0-6.84,0-10.27
	C111.91,132.04,112.3,132.03,112.7,132.02z"/>
<path d="M72.65,142.28c0-3.4,0-6.81,0-10.21c0.4,0,0.79,0,1.19,0c0,3.4,0,6.81,0,10.21C73.44,142.28,73.05,142.28,72.65,142.28z"/>
<path d="M-2.86,111.04c0.31,0.27,0.62,0.55,0.93,0.82c2.45,2.58,6.54,4.9,7.02,7.81c1.07,6.52,0.33,13.34,0.33,20.03
	c-0.54,0.06-1.08,0.12-1.62,0.19c-0.44-1.57-1.18-3.12-1.25-4.71c-0.18-4.13,0.18-8.29-0.2-12.39c-0.15-1.59-1.71-3.05-2.64-4.57
	c-3.32-2.94-6.63-5.89-9.95-8.83c1.22-1.97,1.99-4.56,3.73-5.79c7.14-5.02,10.56-11.29,9.1-20.22c-0.63-3.88-0.23-7.95-0.04-11.93
	c0.07-1.57,0.83-3.1,1.28-4.65c0.55,0.07,1.11,0.14,1.66,0.21c0,5.23-0.52,10.53,0.11,15.69c1.19,9.73-1.27,17.51-9.94,22.76
	c-0.72,0.44-1.48,0.81-2.22,1.22c-0.2,0.65-0.4,1.3-0.59,1.95C-5.72,109.44-4.29,110.24-2.86,111.04z"/>
<path d="M-10.23,109.39c3.32,2.94,6.63,5.89,9.95,8.83c0,5.5,0,11,0,16.5c-0.46,0.1-0.92,0.19-1.37,0.29
	c-0.39-2.24-1-4.46-1.12-6.72c-0.21-3.97,0.98-8.36-3.88-10.55c-3.54-3.04-7.1-6.11-10.67-9.17c0.69-1.54,0.94-3.72,2.13-4.53
	c9.9-6.73,14.75-15.51,12.46-27.72C-3,74.91-1.99,73.25-1.57,71.7c0.54,0.07,1.09,0.13,1.63,0.2c0,7.14,0.51,14.33-0.29,21.38
	c-0.26,2.31-3.87,4.26-6,6.32c-2.25,2.19-4.57,4.31-7.29,6.87C-12.3,107.55-11.27,108.47-10.23,109.39z"/>
<path d="M-17.32,108.58c3.56,3.06,7.12,6.13,10.67,9.17c0.74,3.93,1.51,7.88,2.27,11.83c-0.69,0.21-1.39,0.41-2.08,0.62
	c-0.59-1.79-1.6-3.57-1.66-5.38c-0.1-2.91-0.31-5.37-3.8-5.95c-4.15-3.86-8.3-7.72-12.45-11.58c0.61-1.4,0.92-3.09,1.89-4.15
	c2-2.19,4.26-4.18,6.6-6.02c5.3-4.16,9.24-8.78,7.8-16.25c-0.26-1.34,0.98-2.96,2.28-4.25c-0.34,5.68,3.33,11.75-1.71,16.7
	c-4.12,4.04-8.49,7.83-14.04,12.92C-19.91,107.15-18.62,107.86-17.32,108.58z"/>
<path class="st0" d="M85.32,99.54c-2.48,0-4.07,0-6.39,0c1.02-2.66,1.86-4.85,3.25-8.46C83.51,94.64,84.32,96.83,85.32,99.54z"/>
<path class="st0" d="M29.85,106.85c0-3.43,0-5.18,0-8.01c2.78,0.72,5.22,1.24,7.55,2.09c0.4,0.15,0.6,2.43,0.3,2.58
	C35.5,104.66,33.15,105.51,29.85,106.85z"/>
<path class="st0" d="M30.34,87.73c2.64,1.43,4.62,2.51,6.61,3.59c-1.35,0.84-2.62,2.16-4.07,2.41
	C29.29,94.33,29.3,92.03,30.34,87.73z"/>
<path class="st0" d="M157.84,106.69c0-6.89,0-12.06,0-18.99c3.66,1.84,7.64,2.54,8.74,4.71c1.34,2.63,1.29,7.04-0.09,9.66
	C165.35,104.24,161.39,104.92,157.84,106.69z"/>
<path class="st0" d="M190.55,90.81c1.28,3.58,2.09,5.83,3.08,8.6c-2.27,0-3.92,0-6.17,0C188.43,96.7,189.25,94.44,190.55,90.81z"/>
</svg>
