<?xml version="1.0" standalone="no"?>
<!DOCTYPE svg PUBLIC "-//W3C//DTD SVG 20010904//EN"
 "http://www.w3.org/TR/2001/REC-SVG-20010904/DTD/svg10.dtd">
<svg version="1.0" xmlns="http://www.w3.org/2000/svg"
 width="300.000000pt" height="84.000000pt" viewBox="0 0 300.000000 84.000000"
 preserveAspectRatio="xMidYMid meet">

<g transform="translate(0.000000,84.000000) scale(0.100000,-0.100000)"
fill="#000000" stroke="none">
<path d="M413 829 c-10 -10 -13 -61 -13 -185 l0 -171 -60 -53 -61 -52 61 -55
60 -55 0 -118 c0 -92 3 -120 15 -130 13 -11 15 4 15 121 l0 133 -52 54 -53 53
53 47 53 47 -3 188 c-2 150 -5 186 -15 176z"/>
<path d="M352 778 c-8 -8 -12 -58 -12 -148 l0 -136 -65 -58 -66 -58 66 -60 65
-60 0 -93 c0 -65 4 -96 13 -104 23 -18 27 -2 27 98 l0 95 -62 64 -63 63 63 55
62 56 0 143 c0 79 -4 146 -8 149 -5 3 -14 0 -20 -6z"/>
<path d="M303 729 c-9 -9 -13 -45 -13 -109 l0 -95 -76 -69 -75 -68 75 -70 76
-70 0 -63 c0 -43 5 -66 15 -75 13 -11 15 -2 15 69 l0 81 -67 65 -68 65 68 62
68 63 -3 113 c-2 90 -5 111 -15 101z"/>
<path d="M247 683 c-4 -3 -7 -34 -7 -67 l0 -61 -85 -80 -84 -80 82 -75 c75
-68 82 -79 87 -119 7 -66 30 -66 30 0 l0 53 -77 73 -78 72 78 73 78 73 -1 73
c0 66 -6 83 -23 65z"/>
<path d="M193 628 c-4 -7 -6 -20 -5 -28 1 -9 -39 -53 -92 -100 -52 -47 -94
-88 -93 -91 1 -4 42 -43 92 -88 50 -45 90 -84 90 -89 0 -12 16 -32 26 -32 5 0
9 10 9 23 0 15 -27 48 -87 104 l-88 83 88 82 c76 72 88 87 87 116 0 33 -13 42
-27 20z"/>
<path d="M1395 620 c-17 -5 -44 -23 -60 -40 -27 -29 -30 -37 -30 -101 0 -69 1
-71 37 -105 34 -31 44 -34 96 -34 70 0 100 17 84 47 -10 17 -18 19 -60 15 -41
-4 -53 -1 -71 17 -26 26 -28 86 -5 120 15 21 23 23 70 19 47 -4 53 -2 63 19 8
18 7 24 -7 32 -29 15 -85 20 -117 11z"/>
<path d="M554 607 c-2 -7 -3 -69 -2 -138 l3 -124 83 0 c79 0 85 1 108 28 29
34 31 73 4 102 -18 20 -19 23 -5 35 23 19 18 48 -14 81 -27 27 -35 29 -101 29
-49 0 -72 -4 -76 -13z m114 -43 c26 -8 30 -44 5 -45 -10 0 -26 -2 -35 -4 -14
-2 -18 4 -18 26 0 30 7 33 48 23z m20 -113 c8 -5 12 -17 10 -27 -2 -14 -13
-20 -41 -22 -35 -3 -37 -2 -37 27 0 27 3 31 28 31 15 0 33 -4 40 -9z"/>
<path d="M812 483 l3 -138 128 -2 129 -1 10 29 c9 27 14 29 59 29 47 0 51 -2
60 -30 9 -25 16 -30 45 -30 19 0 34 5 34 10 0 16 -91 243 -103 258 -6 7 -24
12 -40 10 -29 -3 -33 -9 -81 -131 -31 -77 -52 -120 -54 -108 -3 19 -10 21 -63
21 l-59 0 0 110 0 110 -35 0 -36 0 3 -137z m347 16 c14 -41 15 -39 -18 -39
-29 0 -29 1 -18 35 13 43 22 44 36 4z"/>
<path d="M1564 607 c-2 -7 -3 -69 -2 -138 l3 -124 30 0 c29 0 30 2 35 53 l5
54 26 -29 c15 -15 34 -40 44 -55 13 -21 25 -28 49 -28 18 0 36 3 39 6 7 7 -36
67 -85 119 l-28 31 55 54 c30 30 55 58 55 62 0 4 -14 8 -32 8 -25 0 -43 -11
-80 -47 l-48 -47 0 47 c0 46 -1 47 -30 47 -17 0 -33 -6 -36 -13z"/>
<path d="M1834 607 c-2 -7 -3 -69 -2 -138 l3 -124 62 -3 c110 -5 173 45 173
138 0 94 -53 140 -162 140 -47 0 -70 -4 -74 -13z m146 -67 c31 -31 27 -93 -6
-119 -15 -12 -37 -21 -50 -21 -23 0 -24 3 -24 80 l0 80 30 0 c17 0 39 -9 50
-20z"/>
<path d="M2193 608 c-13 -16 -103 -240 -103 -256 0 -7 14 -12 31 -12 25 0 33
6 42 30 11 28 15 30 62 30 47 0 51 -2 62 -30 9 -24 17 -30 42 -30 16 0 32 3
34 8 3 4 -19 65 -48 137 -49 124 -53 130 -82 133 -16 2 -34 -3 -40 -10z m50
-110 l16 -38 -34 0 -33 0 15 40 c9 22 17 39 19 38 1 -2 9 -20 17 -40z"/>
<path d="M2376 612 c-5 -8 31 -165 55 -240 10 -29 15 -33 42 -30 27 3 32 9 49
58 10 30 21 62 24 70 4 9 15 -13 29 -55 20 -65 24 -70 53 -73 28 -3 31 0 46
45 18 57 56 207 56 222 0 6 -15 11 -34 11 -38 0 -33 10 -57 -119 l-12 -65 -21
75 c-20 70 -23 74 -52 77 -31 3 -32 2 -50 -67 -10 -39 -20 -68 -23 -65 -3 3
-13 40 -21 82 -15 75 -16 77 -47 80 -17 2 -34 -1 -37 -6z"/>
<path d="M2765 608 c-3 -8 -4 -70 -3 -139 l3 -124 30 0 30 0 5 83 5 82 58 -85
c46 -68 63 -85 82 -85 l25 0 0 141 0 140 -32 -3 -33 -3 -3 -68 -3 -68 -52 68
c-39 50 -60 69 -80 71 -16 2 -29 -2 -32 -10z"/>
<path d="M924 127 c-9 -25 0 -90 14 -95 7 -2 12 5 12 17 0 14 6 21 20 21 27 0
25 20 -2 28 l-23 6 23 5 c35 9 31 26 -6 29 -21 2 -34 -2 -38 -11z"/>
<path d="M1047 134 c-4 -4 -7 -29 -7 -57 0 -62 24 -60 28 3 3 41 -7 68 -21 54z"/>
<path d="M1118 133 c-10 -20 -2 -97 10 -100 6 -3 12 2 12 11 0 20 19 21 26 1
4 -8 12 -15 20 -15 17 0 18 12 3 27 -8 8 -7 16 2 31 10 17 10 23 0 36 -14 16
-67 22 -73 9z m52 -33 c0 -5 -7 -10 -15 -10 -8 0 -15 5 -15 10 0 6 7 10 15 10
8 0 15 -4 15 -10z"/>
<path d="M1247 134 c-4 -4 -7 -29 -7 -56 0 -47 1 -48 30 -48 17 0 33 0 37 -1
4 0 9 4 11 10 2 6 -8 11 -22 11 -31 0 -34 15 -5 23 24 6 17 26 -9 28 -11 1 -9
3 6 7 13 4 24 12 25 17 2 12 -55 19 -66 9z"/>
<path d="M1430 85 c0 -41 3 -56 13 -53 7 3 12 23 12 53 0 30 -5 50 -12 53 -10
3 -13 -12 -13 -53z"/>
<path d="M1504 126 c-3 -8 -4 -31 -2 -52 4 -48 28 -59 28 -12 l0 33 23 -32
c33 -49 49 -43 45 17 -3 52 -19 68 -29 28 l-5 -23 -18 28 c-20 30 -34 34 -42
13z"/>
<path d="M1705 131 c-3 -6 1 -13 9 -18 8 -4 16 -23 18 -42 5 -50 28 -53 28 -3
0 26 5 42 15 46 8 3 15 10 15 16 0 13 -77 13 -85 1z"/>
<path d="M1836 133 c-3 -3 -6 -28 -6 -55 0 -36 4 -48 15 -48 8 0 15 9 15 20 0
26 26 26 33 0 11 -41 27 -20 27 35 0 55 -16 76 -27 35 -6 -23 -33 -27 -33 -6
0 17 -14 28 -24 19z"/>
<path d="M1977 134 c-4 -4 -7 -29 -7 -56 l0 -48 40 0 c22 0 40 5 40 10 0 6
-11 10 -25 10 -30 0 -33 16 -4 23 24 6 17 26 -9 28 -11 1 -9 3 6 7 13 4 24 12
25 17 2 12 -55 19 -66 9z"/>
<path d="M2160 85 c0 -30 5 -55 10 -55 6 0 10 9 10 20 0 13 7 20 20 20 14 0
20 -7 20 -21 0 -40 25 -13 28 31 4 48 -15 80 -24 42 -8 -28 -44 -30 -44 -2 0
11 -4 20 -10 20 -5 0 -10 -25 -10 -55z"/>
<path d="M2307 122 c-10 -10 -17 -28 -17 -39 0 -21 39 -63 58 -63 20 0 52 39
52 63 0 49 -61 74 -93 39z m61 -39 c-2 -20 -9 -28 -23 -28 -14 0 -21 8 -23 28
-3 23 0 27 23 27 23 0 26 -4 23 -27z"/>
<path d="M2444 126 c-3 -8 -4 -31 -2 -52 3 -37 5 -39 42 -42 25 -2 36 0 31 7
-3 6 -15 11 -26 11 -16 0 -19 7 -19 45 0 43 -15 61 -26 31z"/>
<path d="M2554 127 c-3 -8 -4 -32 -2 -53 3 -37 5 -39 41 -42 21 -2 37 1 37 7
0 6 -11 11 -25 11 -31 0 -33 17 -2 22 28 4 25 22 -5 27 l-23 4 23 6 c35 9 31
26 -6 29 -21 2 -34 -2 -38 -11z"/>
</g>
</svg>
